<svg xmlns="http://www.w3.org/2000/svg"><defs><symbol viewBox="0 0 18 32" id="icon-lightning"><path fill-rule="evenodd" clip-rule="evenodd" d="M12.443.336a2 2 0 01.554 2.773L5.737 14H16a2 2 0 011.664 3.11l-9.333 14a2 2 0 01-3.328-2.22L12.263 18H2a2 2 0 01-1.664-3.11l9.333-14a2 2 0 012.774-.554z"/></symbol><symbol viewBox="0 0 26 26" id="icon-question-answer"><path fill-rule="evenodd" clip-rule="evenodd" d="M17.643.515H1.298C.607.515.041 1.08.041 1.772v17.602l5.03-5.03h12.572c.692 0 1.258-.565 1.258-1.256V1.772c0-.692-.566-1.257-1.258-1.257zm-1.257 2.514v8.801H4.026l-.741.742-.73.73V3.028h13.831zm5.03 2.515h2.514c.691 0 1.257.566 1.257 1.257v18.86l-5.03-5.03H6.328a1.261 1.261 0 01-1.257-1.257V16.86h16.345V5.544z"/></symbol><symbol viewBox="0 0 28 22" id="icon-chrome-reader-mode"><path fill-rule="evenodd" clip-rule="evenodd" d="M2.702.4h22.631a2.522 2.522 0 012.515 2.515V19.26a2.522 2.522 0 01-2.515 2.515H2.702A2.522 2.522 0 01.187 19.26V2.915A2.522 2.522 0 012.702.401zm0 2.515V19.26H12.76V2.915H2.702zM25.333 19.26H15.275V2.915h10.058V19.26zM24.076 7.316h-7.544v1.886h7.544V7.316zm-7.544 3.143h7.544v1.886h-7.544V10.46zm7.544 3.143h-7.544v1.886h7.544v-1.886z"/></symbol><symbol viewBox="0 0 21 21" id="icon-person"><path fill-rule="evenodd" clip-rule="evenodd" d="M10.368.03A5.028 5.028 0 005.34 5.057c0 2.78 2.25 5.03 5.03 5.03 2.778 0 5.029-2.25 5.029-5.03 0-2.778-2.25-5.029-5.03-5.029zm2.515 5.029a2.522 2.522 0 00-2.514-2.515 2.522 2.522 0 00-2.515 2.515 2.522 2.522 0 002.514 2.514 2.522 2.522 0 002.515-2.514zm5.03 12.573c-.252-.893-4.15-2.515-7.545-2.515-3.382 0-7.254 1.61-7.543 2.515h15.087zm-17.603 0c0-3.345 6.701-5.03 10.058-5.03s10.059 1.685 10.059 5.03v2.514H.31v-2.514z"/></symbol><symbol viewBox="0 0 21 21" id="icon-arrow-left"><path d="M20.988 8.83H5.687l7.028-7.028L10.93.029.87 10.088 10.93 20.146l1.773-1.773-7.016-7.028h15.301V8.83z"/></symbol><symbol viewBox="0 0 21 21" id="icon-close"><path d="M21 2.115L18.885 0 10.5 8.385 2.115 0 0 2.115 8.385 10.5 0 18.885 2.115 21l8.385-8.385L18.885 21 21 18.885 12.615 10.5 21 2.115z"/></symbol><symbol viewBox="0 0 86 86" id="icon-spinner"><path fill-rule="evenodd" clip-rule="evenodd" d="M17.8 60.505l49.806-35.603.074.104a38.45 38.45 0 00-.074-.104c-9.831-13.753-28.95-16.932-42.704-7.1-13.753 9.83-16.932 28.95-7.101 42.703z" fill="currentFill"/><path fill-rule="evenodd" clip-rule="evenodd" d="M67.606 24.902L17.8 60.505l-.024-.034.024.034c9.831 13.753 28.95 16.932 42.703 7.101 13.754-9.831 16.933-28.95 7.102-42.703z" fill="currentColor"/><path d="M26.398 59.08a4.27 4.27 0 11-8.54 0 4.27 4.27 0 018.54 0zM68.326 27.247a4.27 4.27 0 11-8.541 0 4.27 4.27 0 018.54 0z" fill="currentFill"/><path fill-rule="evenodd" clip-rule="evenodd" d="M24.186 55.94c7.31 10.227 21.527 12.591 31.754 5.28 10.227-7.31 12.59-21.526 5.28-31.753s-21.527-12.591-31.754-5.28c-10.226 7.31-12.59 21.527-5.28 31.753z" fill="#fff"/></symbol><symbol viewBox="0 0 32 31" id="icon-search"><path fill-rule="evenodd" clip-rule="evenodd" d="M21.186 18.978h1.363l8.609 8.627-2.57 2.57-8.627-8.609v-1.363l-.466-.483a11.165 11.165 0 01-7.298 2.709c-6.194 0-11.215-5.02-11.215-11.215C.982 5.021 6.003 0 12.197 0S23.41 5.02 23.41 11.214c0 2.778-1.018 5.332-2.708 7.298l.483.466zM4.433 11.214a7.753 7.753 0 007.764 7.764 7.754 7.754 0 007.764-7.764 7.753 7.753 0 00-7.764-7.763 7.753 7.753 0 00-7.764 7.763z"/></symbol></defs></svg>
