<svg xmlns="http://www.w3.org/2000/svg">
	<defs>
		<symbol viewBox="0 0 18 32" id="icon-lightning">
			<path fill-rule="evenodd" clip-rule="evenodd"
				d="M12.443.336a2 2 0 01.554 2.773L5.737 14H16a2 2 0 011.664 3.11l-9.333 14a2 2 0 01-3.328-2.22L12.263 18H2a2 2 0 01-1.664-3.11l9.333-14a2 2 0 012.774-.554z" />
		</symbol>
		<symbol viewBox="0 0 26 26" id="icon-question-answer">
			<path fill-rule="evenodd" clip-rule="evenodd"
				d="M17.6433 0.514526H1.29826C0.606744 0.514526 0.0409546 1.08032 0.0409546 1.77184V19.3742L5.07019 14.3449H17.6433C18.3348 14.3449 18.9006 13.7791 18.9006 13.0876V1.77184C18.9006 1.08032 18.3348 0.514526 17.6433 0.514526ZM16.386 3.02908V11.8302H4.02665L3.28484 12.5721L2.5556 13.3013V3.02908H16.386ZM21.4152 5.54381H23.9298C24.6213 5.54381 25.1871 6.10959 25.1871 6.80112V25.6608L20.1579 20.6315H6.32748C5.63596 20.6315 5.07017 20.0657 5.07017 19.3742V16.8596H21.4152V5.54381Z" />
		</symbol>
		<symbol viewBox="0 0 28 22" id="icon-chrome-reader-mode">
			<path fill-rule="evenodd" clip-rule="evenodd"
				d="M2.70175 0.400635H25.3333C26.7164 0.400635 27.848 1.53221 27.848 2.91526V19.2603C27.848 20.6433 26.7164 21.7749 25.3333 21.7749H2.70175C1.31871 21.7749 0.187134 20.6433 0.187134 19.2603V2.91526C0.187134 1.53221 1.31871 0.400635 2.70175 0.400635ZM2.70172 2.91528V19.2603H12.7602V2.91528H2.70172ZM25.3333 19.2603H15.2749V2.91528H25.3333V19.2603ZM24.0761 7.31582H16.5322V9.20178H24.0761V7.31582ZM16.5322 10.4591H24.0761V12.3451H16.5322V10.4591ZM24.0761 13.6024H16.5322V15.4883H24.0761V13.6024Z" />
		</symbol>
	</defs>
</svg>